<svg width="139" height="114" viewBox="0 0 139 114" fill="none" xmlns="http://www.w3.org/2000/svg">
<path d="M138.457 78.7418L105.981 18.8998C105.593 18.1864 104.847 17.7422 104.035 17.7422C103.223 17.7422 102.477 18.1864 102.089 18.9001L94.5073 32.8715C93.924 33.9461 94.3225 35.2897 95.3972 35.8729C96.4721 36.4564 97.8154 36.0574 98.3986 34.983L104.035 24.5967L121.616 56.9921L112.738 64.9499C111.827 65.766 111.751 67.1654 112.567 68.076C113.004 68.5639 113.609 68.8121 114.216 68.8121C114.742 68.8121 115.27 68.6255 115.693 68.2468L123.787 60.9918L134.566 80.8537C134.967 81.5928 135.728 82.0119 136.514 82.0119C136.871 82.0119 137.232 81.9254 137.568 81.7433C138.642 81.1604 139.04 79.8162 138.457 78.7418Z" fill="#F5F6FA"/>
<path d="M23.0329 68.2466C23.4556 68.6255 23.9836 68.8118 24.5096 68.8118C25.1168 68.8118 25.7215 68.5633 26.1587 68.0757C26.9748 67.1654 26.898 65.7657 25.9878 64.9496L17.1091 56.9918L34.6902 24.5964L40.3269 34.9827C40.9098 36.0574 42.2531 36.4556 43.3284 35.8726C44.4027 35.2894 44.8012 33.9455 44.218 32.8712L36.6356 18.8998C36.2484 18.1864 35.5019 17.7422 34.6899 17.7422C33.878 17.7422 33.1315 18.1864 32.7443 18.8998L0.268507 78.7418C-0.314727 79.8162 0.0837374 81.1601 1.15812 81.7433C1.49371 81.9254 1.85528 82.0119 2.21213 82.0119C2.99784 82.0119 3.75876 81.5928 4.15988 80.8537L14.9388 60.9918L23.0329 68.2466Z" fill="#F5F6FA"/>
<path d="M71.3084 1.15761C70.9212 0.444215 70.1744 0 69.3627 0C68.551 0 67.8043 0.444215 67.417 1.15761L8.13228 110.398C7.54904 111.473 7.94751 112.817 9.02189 113.4C9.35748 113.582 9.71905 113.668 10.0759 113.668C10.8616 113.668 11.6225 113.249 12.0237 112.51L42.5605 56.2417L54.1792 66.6564C55.0201 67.4102 56.2934 67.4099 57.1343 66.6564L69.3615 55.6959L81.5906 66.6567C82.0112 67.0336 82.5395 67.2219 83.0681 67.2219C83.5968 67.2219 84.1251 67.0336 84.5457 66.6567L96.1655 56.242L126.703 112.511C127.286 113.585 128.629 113.984 129.704 113.4C130.779 112.817 131.177 111.473 130.594 110.399L71.3084 1.15761ZM83.0678 62.035L70.8385 51.0743C69.9979 50.3205 68.7246 50.3208 67.8834 51.0743L55.6564 62.0348L44.7311 52.2417L69.3627 6.85448L93.9943 52.2417L83.0678 62.035Z" fill="#F5F6FA"/>
<path d="M93.2324 83.7697C91.9304 83.7697 90.8711 84.829 90.8711 86.1309C90.8711 87.4329 91.9304 88.4922 93.2324 88.4922C94.5343 88.4922 95.5936 87.4329 95.5936 86.1309C95.5936 84.829 94.5346 83.7697 93.2324 83.7697Z" fill="#F5F6FA"/>
<path d="M41.7299 96.6949C40.428 96.6949 39.3687 97.7543 39.3687 99.0562C39.3687 100.358 40.428 101.417 41.7299 101.417C43.0319 101.417 44.0912 100.358 44.0912 99.0562C44.0912 97.7543 43.0319 96.6949 41.7299 96.6949Z" fill="#F5F6FA"/>
<path d="M101.026 90.9059C99.7239 90.9059 98.6646 91.9652 98.6646 93.2672C98.6646 94.5691 99.7239 95.6284 101.026 95.6284C102.328 95.6284 103.387 94.5691 103.387 93.2672C103.387 91.9652 102.328 90.9059 101.026 90.9059Z" fill="#F5F6FA"/>
</svg>
