<svg width="1078" height="159" viewBox="0 0 1078 159" fill="none" xmlns="http://www.w3.org/2000/svg">
<path d="M643.685 5.74999C643.994 6.03942 651.332 12.8401 658.609 12.8401C664.036 12.8401 669.497 9.05854 672.051 7.01501C674.605 9.05854 680.066 12.8401 685.492 12.8401C690.857 12.8401 696.015 9.15957 698.5 7.08048C700.986 9.15957 706.143 12.8401 711.508 12.8401C716.935 12.8401 722.395 9.05854 724.949 7.01501C727.504 9.05854 732.964 12.8401 738.391 12.8401C745.668 12.8401 753.006 6.03942 753.315 5.74978C754.189 4.93094 754.233 3.55904 753.414 2.68535C752.595 1.81165 751.223 1.76743 750.349 2.58649C748.594 4.23263 743.023 8.50419 738.391 8.50419C732.836 8.50419 726.494 2.64415 726.432 2.5867C725.598 1.80493 724.301 1.80493 723.467 2.5867C721.711 4.23263 716.14 8.50419 711.508 8.50419C705.996 8.50419 700.09 2.69206 700.033 2.63526C699.188 1.78997 697.816 1.79041 696.969 2.63332C696.91 2.69207 691.005 8.50419 685.492 8.50419C679.937 8.50419 673.595 2.64415 673.534 2.5867C672.7 1.80493 671.402 1.80493 670.568 2.5867C668.813 4.23263 663.242 8.50419 658.609 8.50419C653.054 8.50419 646.712 2.64415 646.649 2.58497C645.776 1.76764 644.405 1.81252 643.586 2.68535C642.767 3.55904 642.812 4.93093 643.685 5.74999Z" fill="white"/>
<path d="M967.685 145.75C967.994 146.039 975.332 152.84 982.609 152.84C988.036 152.84 993.496 149.059 996.05 147.015C998.605 149.059 1004.07 152.84 1009.49 152.84C1014.86 152.84 1020.01 149.16 1022.5 147.08C1024.99 149.16 1030.14 152.84 1035.51 152.84C1040.93 152.84 1046.39 149.059 1048.95 147.015C1051.5 149.059 1056.96 152.84 1062.39 152.84C1069.67 152.84 1077.01 146.039 1077.31 145.75C1078.19 144.931 1078.23 143.559 1077.41 142.685C1076.59 141.812 1075.22 141.767 1074.35 142.586C1072.59 144.233 1067.02 148.504 1062.39 148.504C1056.84 148.504 1050.49 142.644 1050.43 142.587C1049.6 141.805 1048.3 141.805 1047.47 142.587C1045.71 144.233 1040.14 148.504 1035.51 148.504C1030 148.504 1024.09 142.692 1024.03 142.635C1023.19 141.79 1021.82 141.79 1020.97 142.633C1020.91 142.692 1015 148.504 1009.49 148.504C1003.94 148.504 997.595 142.644 997.533 142.587C996.699 141.805 995.402 141.805 994.568 142.587C992.812 144.233 987.241 148.504 982.609 148.504C977.054 148.504 970.712 142.644 970.649 142.585C969.775 141.768 968.404 141.813 967.586 142.685C966.767 143.559 966.811 144.931 967.685 145.75Z" fill="white"/>
<path d="M121 3.5C121 1.56695 119.567 0 117.8 0H108.2C106.433 0 105 1.56695 105 3.5C105 5.43305 106.433 7 108.2 7H117.8C119.567 7 121 5.43305 121 3.5Z" fill="white"/>
<path d="M551 150.5C551 148.567 549.567 147 547.8 147H538.2C536.433 147 535 148.567 535 150.5C535 152.433 536.433 154 538.2 154H547.8C549.567 154 551 152.433 551 150.5Z" fill="white"/>
<path d="M918 54.5C918 52.567 916.567 51 914.8 51H905.2C903.433 51 902 52.567 902 54.5C902 56.433 903.433 58 905.2 58H914.8C916.567 58 918 56.433 918 54.5Z" fill="white"/>
<path d="M53.5698 129.23C52.7787 128.898 51.8684 129.27 51.5376 130.061C49.7871 134.237 45.4472 136.626 40.9838 135.871C40.1371 135.728 39.3365 136.298 39.1935 137.143C39.0506 137.989 39.619 138.79 40.4658 138.934C46.3594 139.93 52.0904 136.776 54.4011 131.263C54.7333 130.471 54.3612 129.561 53.5698 129.23Z" fill="white"/>
<path d="M80.3673 134.683C79.9561 133.93 79.0136 133.654 78.2605 134.066L75.5691 135.535L68.5796 135.832L61.6077 132.95L62.0376 131.927L69.8926 133.255C70.378 133.337 70.8746 133.185 71.2289 132.842L77.5264 126.775C77.767 126.545 77.9249 126.244 77.9804 125.917L78.5384 122.617C78.6814 121.772 78.1115 120.97 77.2661 120.827C76.421 120.684 75.6189 121.254 75.4759 122.099L75.0033 124.893L69.6387 130.062L63.269 128.985L63.5672 128.275C64.2905 126.549 64.192 124.646 63.353 123.041C65.1507 122.274 67.1417 120.913 68.7514 118.799C71.4101 115.306 72.2347 110.515 70.86 107.905C72.278 105.035 72.0716 100.724 71.1811 97.6167C70.0969 93.8392 67.4736 90.9022 64.4976 90.1342C63.9135 89.9835 63.2971 90.1832 62.9129 90.6474C62.5288 91.1117 62.4481 91.7564 62.7055 92.3024C62.9808 92.8813 63.2112 93.4936 63.3904 94.1192C63.8344 95.6653 63.9517 97.2444 63.7147 98.4501C63.5361 99.3665 63.1848 99.8599 62.9349 99.9311C62.3706 100.092 60.717 98.8346 59.6963 95.9483C59.4597 95.2798 58.8021 94.8568 58.0953 94.9198C57.3888 94.9814 56.8151 95.5144 56.7001 96.2132C56.4143 97.9493 56.5412 99.8341 57.0664 101.665C57.9665 104.798 60.335 107.995 62.9365 109.646C62.2636 110.42 61.5049 111.368 60.5817 112.58C59.6465 113.808 58.6586 115.15 57.8689 116.431L57.6725 116.204C56.0037 114.272 54.0397 112.716 51.8959 111.554L52.6695 109.587C52.9824 108.789 52.5899 107.888 51.7925 107.574C50.9934 107.261 50.0923 107.653 49.7776 108.452L49.0586 110.282C46.7252 109.44 44.2537 109.022 41.7717 109.049L41.6944 107.085C41.6615 106.227 40.9381 105.56 40.0819 105.593C39.224 105.628 38.557 106.349 38.5916 107.206L38.6739 109.318C36.2685 109.711 33.9006 110.534 31.6894 111.809L31.4309 111.959C31.1058 110.491 30.6146 108.898 30.1367 107.431C29.6635 105.982 29.257 104.838 28.8766 103.884C31.8764 103.18 35.1638 100.942 37.0445 98.2784C38.1429 96.7191 38.8827 94.981 39.1833 93.2505C39.3044 92.5528 38.9379 91.8608 38.2909 91.5703C37.6457 91.2786 36.8839 91.4615 36.4408 92.015C34.5277 94.4052 32.5505 95.0505 32.0709 94.7111C31.8583 94.5617 31.6905 93.9805 31.8215 93.0561C31.9942 91.8394 32.6255 90.3885 33.5539 89.0714C33.929 88.5395 34.3458 88.0398 34.7962 87.5836C35.22 87.1544 35.3559 86.519 35.1477 85.953C34.9376 85.3883 34.4186 84.9933 33.8187 84.9455C30.7541 84.6918 27.3109 86.6028 25.0463 89.8139C23.1837 92.4551 21.5707 96.4601 21.964 99.6387C19.8078 101.651 19.0109 106.446 20.3734 110.617C21.1968 113.142 22.6308 115.084 24.0747 116.399C22.7561 117.639 22.0388 119.403 22.1531 121.27L22.2011 122.039L15.9641 120.984L12.5978 114.338L13.0704 111.544C13.2133 110.699 12.6435 109.897 11.7981 109.754C10.9529 109.611 10.1508 110.181 10.0079 111.026L9.4498 114.326C9.39438 114.653 9.44463 114.99 9.59609 115.286L13.5484 123.086C13.7699 123.527 14.189 123.834 14.6744 123.916L22.3979 125.222L22.4665 126.335L15.0641 126.78L8.56384 124.202L6.50534 121.929C5.92941 121.293 4.94864 121.244 4.3126 121.82C3.67656 122.396 3.62719 123.377 4.20312 124.013L6.50275 126.555C6.66184 126.731 6.86066 126.869 7.08207 126.957L14.2409 129.794C14.3426 129.835 14.4464 129.864 14.5537 129.882C14.6701 129.902 14.7887 129.907 14.9066 129.901L22.7512 129.429C22.7945 129.704 22.8429 129.976 22.8976 130.249L14.4012 132.535C14.1769 132.595 13.9708 132.705 13.7943 132.855L7.53384 138.208C7.35139 138.365 7.20625 138.562 7.11201 138.784L6.06002 141.279C5.72772 142.07 6.09827 142.98 6.88764 143.314C7.0009 143.361 7.11798 143.395 7.2344 143.415C7.92796 143.532 8.63793 143.162 8.92232 142.486L9.83203 140.329L15.5454 135.444L23.7397 133.239C23.8326 133.491 23.9304 133.741 24.0336 133.988L18.7387 137.237C18.5645 137.344 18.4133 137.484 18.2925 137.649L14.7301 142.574C14.5903 142.767 14.496 142.989 14.4562 143.225L13.9978 145.935C13.8548 146.78 14.4247 147.582 15.2701 147.725C16.1167 147.869 16.9173 147.299 17.0603 146.453L17.4583 144.1L20.6275 139.722L25.4442 136.768C26.086 137.824 26.8251 138.828 27.6577 139.753C30.679 143.112 34.7943 145.377 39.2485 146.13C43.7013 146.883 48.3338 146.098 52.2901 143.919C53.4082 143.305 54.4568 142.582 55.4318 141.77L59.0728 146.224L60.626 151.401L60.228 153.754C60.085 154.599 60.6534 155.401 61.5003 155.544C62.3455 155.687 63.1475 155.117 63.2905 154.272L63.7489 151.562C63.7888 151.326 63.7727 151.085 63.7043 150.857L61.9594 145.035C61.8997 144.839 61.8028 144.657 61.6737 144.498L57.6687 139.598C57.8382 139.406 58.0052 139.211 58.168 139.012L65.2789 143.856L69.0681 150.348L69.218 152.684C69.264 153.417 69.813 153.999 70.5066 154.116C70.623 154.136 70.7448 154.142 70.8673 154.134C71.7225 154.079 72.3717 153.341 72.318 152.485L72.145 149.783C72.129 149.542 72.0567 149.308 71.9361 149.1L67.7842 141.986C67.6667 141.787 67.5084 141.615 67.3162 141.485L59.9412 136.461C60.0719 136.237 60.1986 136.01 60.321 135.78L67.7095 138.833C67.8169 138.878 67.9298 138.909 68.0445 138.929C68.1517 138.947 68.2593 138.954 68.3688 138.949L76.0626 138.623C76.3006 138.613 76.5336 138.548 76.7419 138.434L79.7495 136.79C80.5027 136.379 80.7786 135.436 80.3673 134.683ZM23.327 109.653C22.7465 107.879 22.6427 105.877 23.0403 104.158C23.4026 102.594 24.0305 101.871 24.2597 101.782C25.0222 101.482 25.4223 100.644 25.1747 99.8638C24.5795 97.9912 25.6372 94.3633 27.5843 91.6041C28.2248 90.695 28.9904 89.9204 29.8009 89.3282C29.2601 90.4401 28.8967 91.5646 28.7466 92.6197C28.3478 95.4251 29.5359 96.7254 30.2803 97.2497C31.1584 97.8691 32.2371 98.0374 33.3925 97.7996C31.8097 99.3825 29.6504 100.621 27.7839 100.938C26.9875 101.074 26.3088 101.558 25.9197 102.266C25.5284 102.977 25.4843 103.816 25.7999 104.567C26.2086 105.54 26.6486 106.756 27.1826 108.395C27.7232 110.05 28.3355 112.046 28.586 113.6L26.8038 114.629C25.5555 113.705 24.0974 112.017 23.327 109.653ZM60.7019 127.075L58.2693 132.882C56.7931 136.404 54.1376 139.357 50.7925 141.199C47.4477 143.04 43.5318 143.704 39.7666 143.067C36.0014 142.43 32.5216 140.516 29.9682 137.677C27.4136 134.837 25.8782 131.176 25.6426 127.364L25.2533 121.08C25.1808 119.906 25.7675 118.812 26.7866 118.225L33.2424 114.501C36.8883 112.397 41.0319 111.737 44.9533 112.401C48.8731 113.064 52.5707 115.05 55.3222 118.235L60.1942 123.875C60.962 124.764 61.1562 125.991 60.7019 127.075ZM61.3601 120.474L60.0141 118.915C60.7622 117.528 61.998 115.846 63.0508 114.463C64.0973 113.09 64.9112 112.086 65.6172 111.301C66.1605 110.697 66.3962 109.89 66.2606 109.09C66.1261 108.293 65.6427 107.612 64.9354 107.222C63.2785 106.308 61.6467 104.429 60.6721 102.415C61.6851 103.018 62.7578 103.214 63.7907 102.917C64.6662 102.667 66.2159 101.83 66.7633 99.0494C66.9685 98.0036 66.9948 96.8237 66.85 95.5943C67.4204 96.4216 67.8875 97.4031 68.1949 98.4726C69.1265 101.717 68.9324 105.491 67.7533 107.062C67.2613 107.717 67.3647 108.642 67.9866 109.174C68.1752 109.335 68.5286 110.225 68.3564 111.821C68.1668 113.575 67.4099 115.433 66.2782 116.919C64.7737 118.896 62.8415 120.012 61.3601 120.474Z" fill="white"/>
<path d="M53.5698 129.23C52.7787 128.898 51.8684 129.27 51.5376 130.061C49.7871 134.237 45.4472 136.626 40.9838 135.871C40.1371 135.728 39.3365 136.298 39.1935 137.143C39.0506 137.989 39.619 138.79 40.4658 138.934C46.3594 139.93 52.0904 136.776 54.4011 131.263C54.7333 130.471 54.3612 129.561 53.5698 129.23Z" fill="white"/>
<path d="M53.5698 129.23C52.7787 128.898 51.8684 129.27 51.5376 130.061C49.7871 134.237 45.4472 136.626 40.9838 135.871C40.1371 135.728 39.3365 136.298 39.1935 137.143C39.0506 137.989 39.619 138.79 40.4658 138.934C46.3594 139.93 52.0904 136.776 54.4011 131.263C54.7333 130.471 54.3612 129.561 53.5698 129.23Z" fill="white"/>
</svg>
