<svg width="1221" height="271" viewBox="0 0 1221 271" fill="none" xmlns="http://www.w3.org/2000/svg">
<path d="M1110.69 222.75C1110.99 223.039 1118.33 229.84 1125.61 229.84C1131.04 229.84 1136.5 226.059 1139.05 224.015C1141.61 226.059 1147.07 229.84 1152.49 229.84C1157.86 229.84 1163.01 226.16 1165.5 224.08C1167.99 226.16 1173.14 229.84 1178.51 229.84C1183.93 229.84 1189.4 226.059 1191.95 224.015C1194.5 226.059 1199.96 229.84 1205.39 229.84C1212.67 229.84 1220.01 223.039 1220.32 222.75C1221.19 221.931 1221.23 220.559 1220.41 219.685C1219.59 218.812 1218.22 218.767 1217.35 219.586C1215.59 221.233 1210.02 225.504 1205.39 225.504C1199.84 225.504 1193.49 219.644 1193.43 219.587C1192.6 218.805 1191.3 218.805 1190.47 219.587C1188.71 221.233 1183.14 225.504 1178.51 225.504C1173 225.504 1167.09 219.692 1167.03 219.635C1166.19 218.79 1164.82 218.79 1163.97 219.633C1163.91 219.692 1158 225.504 1152.49 225.504C1146.94 225.504 1140.6 219.644 1140.53 219.587C1139.7 218.805 1138.4 218.805 1137.57 219.587C1135.81 221.233 1130.24 225.504 1125.61 225.504C1120.05 225.504 1113.71 219.644 1113.65 219.585C1112.78 218.768 1111.4 218.813 1110.59 219.685C1109.77 220.559 1109.81 221.931 1110.69 222.75Z" fill="#469EDC" fill-opacity="0.2"/>
<path d="M719.58 240.226C718.816 239.836 717.881 240.139 717.492 240.903C715.434 244.936 710.928 246.995 706.534 245.909C705.7 245.703 704.859 246.212 704.653 247.044C704.448 247.876 704.955 248.718 705.788 248.924C711.591 250.358 717.542 247.641 720.257 242.315C720.648 241.55 720.345 240.615 719.58 240.226Z" fill="#469EDC" fill-opacity="0.2"/>
<path d="M745.896 247.665C745.542 246.884 744.623 246.538 743.841 246.892L741.047 248.156L734.055 247.93L727.318 244.536L727.823 243.548L735.557 245.459C736.035 245.577 736.541 245.462 736.92 245.146L743.653 239.567C743.91 239.355 744.09 239.067 744.17 238.745L744.973 235.496C745.179 234.664 744.67 233.821 743.838 233.616C743.006 233.41 742.163 233.918 741.958 234.751L741.278 237.502L735.542 242.256L729.271 240.706L729.621 240.02C730.471 238.354 730.515 236.448 729.798 234.785C731.648 234.154 733.735 232.946 735.498 230.958C738.41 227.673 739.59 222.957 738.414 220.252C740.043 217.495 740.159 213.181 739.503 210.016C738.704 206.168 736.307 203.043 733.397 202.055C732.826 201.862 732.196 202.015 731.778 202.449C731.36 202.883 731.232 203.52 731.448 204.084C731.679 204.682 731.863 205.309 731.995 205.947C732.322 207.522 732.321 209.105 731.995 210.29C731.749 211.19 731.361 211.656 731.107 211.708C730.532 211.827 728.977 210.449 728.175 207.495C727.989 206.81 727.365 206.34 726.655 206.35C725.946 206.358 725.334 206.847 725.167 207.535C724.752 209.245 724.738 211.134 725.125 212.999C725.789 216.191 727.912 219.555 730.383 221.396C729.654 222.118 728.827 223.006 727.816 224.146C726.791 225.301 725.706 226.565 724.823 227.784L724.644 227.543C723.124 225.492 721.282 223.794 719.231 222.474L720.149 220.571C720.521 219.799 720.197 218.871 719.425 218.498C718.651 218.126 717.724 218.45 717.35 219.223L716.496 220.994C714.232 219.98 711.799 219.379 709.322 219.221L709.392 217.256C709.423 216.398 708.751 215.679 707.895 215.648C707.037 215.618 706.318 216.288 706.288 217.145L706.213 219.257C703.785 219.47 701.362 220.114 699.062 221.22L698.793 221.35C698.578 219.863 698.207 218.237 697.84 216.738C697.477 215.258 697.157 214.087 696.849 213.107C699.892 212.629 703.338 210.643 705.412 208.127C706.624 206.654 707.491 204.976 707.92 203.273C708.093 202.586 707.779 201.869 707.156 201.531C706.534 201.192 705.761 201.317 705.278 201.836C703.192 204.077 701.172 204.573 700.719 204.198C700.518 204.033 700.394 203.441 700.594 202.529C700.857 201.329 701.595 199.929 702.619 198.685C703.033 198.183 703.485 197.715 703.969 197.294C704.423 196.898 704.606 196.274 704.441 195.694C704.274 195.116 703.786 194.683 703.191 194.59C700.154 194.109 696.577 195.757 694.079 198.79C692.025 201.285 690.117 205.158 690.272 208.357C687.972 210.203 686.819 214.925 687.866 219.186C688.499 221.766 689.784 223.81 691.125 225.229C689.718 226.367 688.871 228.073 688.846 229.943L688.836 230.713L682.695 229.195L679.834 222.317L680.514 219.565C680.72 218.733 680.212 217.891 679.379 217.685C678.547 217.48 677.705 217.988 677.499 218.82L676.696 222.069C676.617 222.392 676.642 222.731 676.77 223.038L680.129 231.111C680.317 231.567 680.712 231.904 681.19 232.023L688.795 233.902L688.78 235.016L681.365 234.908L675.075 231.852L673.192 229.432C672.665 228.754 671.691 228.632 671.014 229.159C670.337 229.686 670.214 230.66 670.741 231.337L672.844 234.044C672.99 234.232 673.178 234.384 673.392 234.488L680.319 237.852C680.417 237.901 680.519 237.937 680.624 237.963C680.739 237.991 680.857 238.006 680.975 238.008L688.833 238.123C688.855 238.401 688.883 238.676 688.918 238.952L680.274 240.597C680.046 240.64 679.832 240.735 679.645 240.871L673.002 245.742C672.809 245.884 672.649 246.07 672.539 246.285L671.303 248.694C670.913 249.458 671.214 250.393 671.977 250.785C672.086 250.841 672.2 250.883 672.315 250.911C672.998 251.08 673.733 250.765 674.068 250.111L675.136 248.029L681.198 243.584L689.534 241.997C689.608 242.255 689.687 242.511 689.771 242.766L684.248 245.61C684.067 245.704 683.906 245.832 683.773 245.988L679.853 250.632C679.699 250.815 679.588 251.029 679.531 251.261L678.871 253.93C678.666 254.762 679.174 255.604 680.006 255.81C680.84 256.016 681.681 255.507 681.887 254.675L682.459 252.358L685.946 248.229L690.97 245.643C691.531 246.744 692.193 247.8 692.955 248.785C695.717 252.36 699.651 254.926 704.037 256.01C708.421 257.093 713.099 256.656 717.207 254.779C718.368 254.25 719.468 253.607 720.501 252.87L723.799 257.584L724.961 262.862L724.389 265.179C724.183 266.011 724.69 266.853 725.524 267.059C726.356 267.265 727.198 266.756 727.404 265.924L728.063 263.256C728.121 263.023 728.123 262.782 728.072 262.549L726.766 256.613C726.721 256.413 726.638 256.225 726.521 256.057L722.894 250.871C723.077 250.693 723.258 250.51 723.435 250.324L730.165 255.685L733.458 262.442L733.433 264.783C733.425 265.518 733.929 266.138 734.612 266.307C734.726 266.335 734.847 266.351 734.97 266.353C735.827 266.361 736.529 265.674 736.54 264.816L736.569 262.109C736.571 261.868 736.516 261.629 736.411 261.412L732.802 254.008C732.7 253.8 732.555 253.617 732.373 253.473L725.394 247.912C725.541 247.699 725.684 247.482 725.823 247.262L732.963 250.858C733.067 250.911 733.177 250.951 733.29 250.979C733.396 251.005 733.503 251.02 733.612 251.023L741.309 251.273C741.547 251.28 741.784 251.233 742 251.135L745.122 249.72C745.904 249.366 746.25 248.447 745.896 247.665ZM690.884 218.446C690.437 216.633 690.483 214.629 691.008 212.945C691.486 211.412 692.166 210.737 692.401 210.666C693.184 210.424 693.646 209.619 693.457 208.822C693.003 206.91 694.329 203.371 696.477 200.765C697.183 199.906 698.005 199.191 698.857 198.661C698.235 199.729 697.788 200.824 697.56 201.865C696.953 204.632 698.04 206.018 698.744 206.596C699.573 207.279 700.636 207.528 701.806 207.377C700.11 208.837 697.864 209.911 695.979 210.088C695.174 210.164 694.461 210.596 694.021 211.272C693.577 211.953 693.471 212.786 693.729 213.558C694.064 214.559 694.412 215.805 694.822 217.479C695.238 219.17 695.7 221.205 695.833 222.774L693.979 223.668C692.803 222.652 691.475 220.86 690.884 218.446ZM726.853 238.61L723.994 244.219C722.259 247.621 719.39 250.367 715.917 251.955C712.444 253.541 708.49 253.91 704.782 252.994C701.075 252.078 697.748 249.909 695.414 246.888C693.078 243.865 691.821 240.099 691.87 236.28L691.951 229.984C691.967 228.809 692.633 227.761 693.693 227.252L700.409 224.02C704.202 222.195 708.383 221.846 712.244 222.8C716.104 223.754 719.643 226.011 722.149 229.393L726.586 235.381C727.285 236.325 727.387 237.563 726.853 238.61ZM728.003 232.076L726.777 230.421C727.626 229.094 728.984 227.508 730.137 226.208C731.283 224.917 732.17 223.977 732.933 223.247C733.52 222.685 733.815 221.897 733.739 221.09C733.665 220.285 733.234 219.57 732.557 219.128C730.973 218.093 729.486 216.097 728.665 214.016C729.63 214.693 730.685 214.968 731.737 214.75C732.629 214.566 734.237 213.846 734.99 211.115C735.273 210.087 735.387 208.913 735.335 207.676C735.842 208.544 736.234 209.557 736.461 210.647C737.148 213.952 736.672 217.701 735.379 219.179C734.84 219.796 734.874 220.726 735.454 221.303C735.63 221.477 735.916 222.391 735.625 223.97C735.305 225.705 734.412 227.501 733.172 228.899C731.524 230.758 729.514 231.726 728.003 232.076Z" fill="#469EDC" fill-opacity="0.2"/>
<path d="M79.5863 0.685564C78.7675 1.55904 78.8117 2.93093 79.6852 3.74999C79.9939 4.03942 87.3318 10.8401 94.6093 10.8401C100.036 10.8401 105.496 7.05854 108.051 5.01501C110.605 7.05854 116.066 10.8401 121.492 10.8401C126.857 10.8401 132.015 7.15957 134.5 5.08048C136.985 7.15957 142.143 10.8401 147.508 10.8401C152.935 10.8401 158.395 7.05854 160.949 5.01501C163.504 7.05854 168.964 10.8401 174.391 10.8401C181.668 10.8401 189.006 4.03942 189.315 3.74978C190.188 2.93094 190.233 1.55904 189.414 0.685346C188.595 -0.188348 187.223 -0.232573 186.349 0.586487C184.594 2.23263 179.023 6.50419 174.391 6.50419C168.836 6.50419 162.494 0.64415 162.432 0.586699C161.598 -0.195073 160.3 -0.195073 159.466 0.586699C157.711 2.23263 152.14 6.50419 147.508 6.50419C141.996 6.50419 136.09 0.692062 136.033 0.635262C135.188 -0.210032 133.816 -0.209592 132.969 0.633316C132.91 0.692069 127.004 6.50419 121.492 6.50419C115.937 6.50419 109.595 0.64415 109.533 0.586699C108.699 -0.195073 107.402 -0.195073 106.568 0.586699C104.812 2.23263 99.2414 6.50419 94.6093 6.50419C89.0541 6.50419 82.7123 0.644151 82.649 0.584966C81.7753 -0.232361 80.4047 -0.187479 79.5863 0.685564Z" fill="#469EDC" fill-opacity="0.2"/>
<path d="M134.5 215C136.433 215 138 213.433 138 211.5C138 209.567 136.433 208 134.5 208C132.567 208 131 209.567 131 211.5C131 213.433 132.567 215 134.5 215Z" fill="#469EDC" fill-opacity="0.2"/>
<path d="M504 85.5C504 83.567 502.567 82 500.8 82H491.2C489.433 82 488 83.567 488 85.5C488 87.433 489.433 89 491.2 89H500.8C502.567 89 504 87.433 504 85.5Z" fill="#469EDC" fill-opacity="0.2"/>
<path d="M988 185.5C988 183.567 986.567 182 984.8 182H975.2C973.433 182 972 183.567 972 185.5C972 187.433 973.433 189 975.2 189H984.8C986.567 189 988 187.433 988 185.5Z" fill="#469EDC" fill-opacity="0.2"/>
<path d="M16 178.5C16 176.567 14.5674 175 12.8 175H3.2C1.43264 175 0 176.567 0 178.5C0 180.433 1.43264 182 3.2 182H12.8C14.5674 182 16 180.433 16 178.5Z" fill="#469EDC" fill-opacity="0.2"/>
<path d="M1103.5 92C1105.43 92 1107 90.433 1107 88.5C1107 86.567 1105.43 85 1103.5 85C1101.57 85 1100 86.567 1100 88.5C1100 90.433 1101.57 92 1103.5 92Z" fill="#469EDC" fill-opacity="0.2"/>
</svg>
