<svg width="19" height="18" viewBox="0 0 19 18" fill="none" xmlns="http://www.w3.org/2000/svg">
<path fill-rule="evenodd" clip-rule="evenodd" d="M7.87987 1.11437C8.55429 -0.0478923 10.2327 -0.0478891 10.9071 1.11438L12.9725 4.67374C13.1629 5.00182 13.4919 5.22571 13.867 5.28236L17.2966 5.80037C18.7916 6.02617 19.316 7.91374 18.1517 8.87833L15.6528 10.9486C15.3021 11.2392 15.1372 11.6976 15.2224 12.145L15.9224 15.821C16.1966 17.261 14.6849 18.3798 13.3879 17.6968L9.97589 15.9002C9.61136 15.7083 9.17566 15.7083 8.81113 15.9002L5.3991 17.6968C4.10208 18.3798 2.59046 17.261 2.86465 15.821L3.56464 12.145C3.64984 11.6976 3.48492 11.2392 3.13418 10.9486L0.635274 8.87833C-0.52901 7.91373 -0.00460696 6.02617 1.49039 5.80037L4.92003 5.28236C5.2951 5.22571 5.62415 5.00182 5.81452 4.67374L7.87987 1.11437ZM9.60974 1.8672C9.5134 1.70117 9.27362 1.70117 9.17727 1.8672L7.11192 5.42656C6.6931 6.14835 5.96919 6.64091 5.14405 6.76554L1.7144 7.28354C1.50083 7.3158 1.42592 7.58545 1.59224 7.72325L4.09115 9.79357C4.86278 10.4329 5.2256 11.4413 5.03816 12.4256L4.33818 16.1016C4.29901 16.3073 4.51495 16.4671 4.70024 16.3696L8.11227 14.573C8.91424 14.1507 9.87278 14.1507 10.6747 14.573L14.0868 16.3696C14.2721 16.4671 14.488 16.3073 14.4488 16.1016L13.7489 12.4256C13.5614 11.4413 13.9242 10.4329 14.6959 9.79357L17.1948 7.72325C17.3611 7.58545 17.2862 7.3158 17.0726 7.28354L13.643 6.76554C12.8178 6.64091 12.0939 6.14835 11.6751 5.42657L9.60974 1.8672Z" fill="#212946"/>
</svg>
