<svg width="9" height="16" viewBox="0 0 9 16" fill="none" xmlns="http://www.w3.org/2000/svg">
<path fill-rule="evenodd" clip-rule="evenodd" d="M3.25976 1.71213C4.01712 0.954776 5.04432 0.529297 6.11538 0.529297H8.19231C8.51093 0.529297 8.76923 0.787594 8.76923 1.10622V3.87545C8.76923 4.19408 8.51093 4.45237 8.19231 4.45237H6.11538C6.08478 4.45237 6.05543 4.46453 6.0338 4.48617C6.01216 4.50781 6 4.53716 6 4.56776V6.06776H8.19231C8.36996 6.06776 8.53771 6.14961 8.64704 6.28964C8.75637 6.42966 8.79509 6.61226 8.752 6.78461L8.0597 9.55384C7.99549 9.81066 7.76473 9.99084 7.5 9.99084H6V14.9524C6 15.271 5.7417 15.5293 5.42308 15.5293H2.65385C2.33522 15.5293 2.07692 15.271 2.07692 14.9524V9.99084H0.576923C0.258297 9.99084 0 9.73254 0 9.41391V6.64468C0 6.32606 0.258297 6.06776 0.576923 6.06776H2.07692V4.56776C2.07692 3.49669 2.5024 2.46949 3.25976 1.71213ZM6.11538 1.68314C5.35034 1.68314 4.61662 1.98706 4.07565 2.52803C3.53468 3.069 3.23077 3.80271 3.23077 4.56776V6.64468C3.23077 6.96331 2.97247 7.2216 2.65385 7.2216H1.15385V8.83699H2.65385C2.97247 8.83699 3.23077 9.09529 3.23077 9.41391V14.3755H4.84615V9.41391C4.84615 9.09529 5.10445 8.83699 5.42308 8.83699H7.04955L7.4534 7.2216H5.42308C5.10445 7.2216 4.84615 6.96331 4.84615 6.64468V4.56776C4.84615 4.23114 4.97988 3.9083 5.2179 3.67028C5.45593 3.43225 5.77876 3.29853 6.11538 3.29853H7.61538V1.68314H6.11538Z" fill="#212946"/>
</svg>
