<svg width="12" height="12" viewBox="0 0 12 12" fill="none" xmlns="http://www.w3.org/2000/svg">
<g clip-path="url(#clip0)">
<path d="M6 4.5C6.827 4.5 7.5 5.173 7.5 6C7.5 6.827 6.827 7.5 6 7.5C5.173 7.5 4.5 6.827 4.5 6C4.5 5.173 5.173 4.5 6 4.5ZM6 7C6.5515 7 7 6.5515 7 6C7 5.4485 6.5515 5 6 5C5.4485 5 5 5.4485 5 6C5 6.5515 5.4485 7 6 7Z" fill="white"/>
<path d="M6 7C6.138 7 6.25 7.112 6.25 7.25L6.25 9.75C6.25 9.888 6.138 10 6 10C5.862 10 5.75 9.888 5.75 9.75L5.75 7.25C5.75 7.112 5.862 7 6 7Z" fill="white"/>
<path d="M6.00024 8.00012C6.05524 8.00012 6.11074 8.01862 6.15624 8.05462L7.40624 9.05462C7.51424 9.14112 7.53124 9.29812 7.44524 9.40612C7.35824 9.51362 7.20174 9.53062 7.09374 9.44512L6.00024 8.57012L4.90624 9.44512C4.79774 9.53062 4.64074 9.51362 4.55474 9.40612C4.46874 9.29812 4.48574 9.14112 4.59374 9.05462L5.84374 8.05462C5.88974 8.01862 5.94524 8.00012 6.00024 8.00012Z" fill="white"/>
<path d="M6 9.50024C6.055 9.50024 6.1105 9.51874 6.156 9.55474L7.406 10.5547C7.4655 10.6027 7.5 10.6742 7.5 10.7502C7.5 10.8262 7.4655 10.8977 7.406 10.9457L6.156 11.9457C6.064 12.0187 5.9355 12.0187 5.8435 11.9457L4.5935 10.9457C4.5345 10.8977 4.5 10.8262 4.5 10.7502C4.5 10.6742 4.5345 10.6027 4.594 10.5547L5.844 9.55474C5.8895 9.51874 5.945 9.50024 6 9.50024ZM6.8495 10.7502L6 10.0702L5.1505 10.7502L6 11.4302L6.8495 10.7502Z" fill="white"/>
<path d="M6 2C6.138 2 6.25 2.112 6.25 2.25L6.25 4.75C6.25 4.888 6.138 5 6 5C5.862 5 5.75 4.888 5.75 4.75L5.75 2.25C5.75 2.112 5.862 2 6 2Z" fill="white"/>
<path d="M4.74974 2.49975C4.80474 2.49975 4.85974 2.51775 4.90574 2.55425L5.99974 3.42975L7.09374 2.55475C7.20224 2.46825 7.35874 2.48625 7.44524 2.59375C7.53124 2.70175 7.51424 2.85875 7.40624 2.94525L6.15624 3.94525C6.06424 4.01825 5.93574 4.01825 5.84374 3.94525L4.59374 2.94525C4.48574 2.85875 4.46874 2.70175 4.55474 2.59375C4.60374 2.53175 4.67674 2.49975 4.74974 2.49975Z" fill="white"/>
<path d="M6 -0.000251186C6.055 -0.000251181 6.1105 0.0182487 6.156 0.0542487L7.406 1.05425C7.4655 1.10225 7.5 1.17375 7.5 1.24975C7.5 1.32575 7.4655 1.39725 7.406 1.44525L6.156 2.44525C6.064 2.51825 5.9355 2.51825 5.8435 2.44525L4.5935 1.44525C4.5345 1.39725 4.5 1.32575 4.5 1.24975C4.5 1.17375 4.5345 1.10225 4.594 1.05425L5.844 0.0542487C5.8895 0.0182487 5.945 -0.000251191 6 -0.000251186ZM6.8495 1.24975L6 0.569749L5.1505 1.24975L6 1.92975L6.8495 1.24975Z" fill="white"/>
<path d="M7.08304 6.37511C7.12554 6.37511 7.16854 6.38561 7.20804 6.40861L9.37304 7.65861C9.49254 7.72761 9.53354 7.88061 9.46454 8.00011C9.39604 8.12011 9.24304 8.16011 9.12304 8.09161L6.95804 6.84161C6.83854 6.77261 6.79754 6.61961 6.86654 6.50011C6.91254 6.41961 6.99704 6.37511 7.08304 6.37511Z" fill="white"/>
<path d="M9.43911 6.29254C9.53911 6.29254 9.63361 6.35304 9.67211 6.45154C9.72261 6.58004 9.65911 6.72504 9.53011 6.77554L8.22611 7.28554L8.43611 8.67004C8.45711 8.80654 8.36361 8.93404 8.22661 8.95454C8.09161 8.97354 7.96261 8.88204 7.94211 8.74504L7.70161 7.16254C7.68411 7.04704 7.74911 6.93454 7.85761 6.89204L9.34811 6.30954C9.37811 6.29804 9.40861 6.29254 9.43911 6.29254Z" fill="white"/>
<path d="M10.7382 7.04248C10.7817 7.04248 10.8247 7.05348 10.8632 7.07598C10.9287 7.11398 10.9737 7.17948 10.9852 7.25498L11.2257 8.83748C11.2432 8.95298 11.1782 9.06498 11.0697 9.10798L9.57918 9.69048C9.50818 9.71798 9.42918 9.71198 9.36318 9.67398C9.29718 9.63598 9.25218 9.57048 9.24068 9.49498L8.99968 7.91248C8.98218 7.79698 9.04718 7.68448 9.15568 7.64198L10.6472 7.05948C10.6762 7.04798 10.7072 7.04248 10.7382 7.04248ZM10.7012 8.71498L10.5377 7.63948L9.52418 8.03498L9.68818 9.11098L10.7012 8.71498Z" fill="white"/>
<path d="M2.75296 3.87484C2.79546 3.87484 2.83846 3.88534 2.87796 3.90834L5.04296 5.15834C5.16246 5.22734 5.20346 5.38034 5.13446 5.49984C5.06546 5.61984 4.91296 5.65934 4.79296 5.59134L2.62796 4.34134C2.50846 4.27234 2.46746 4.11934 2.53646 3.99984C2.58246 3.91934 2.66696 3.87484 2.75296 3.87484Z" fill="white"/>
<path d="M3.81095 3.04244C3.93195 3.04244 4.03895 3.13094 4.05745 3.25494L4.29795 4.83744C4.31545 4.95294 4.25045 5.06544 4.14195 5.10794L2.65145 5.69044C2.52345 5.74044 2.37795 5.67694 2.32795 5.54844C2.27745 5.41994 2.34095 5.27494 2.46995 5.22444L3.77395 4.71444L3.56345 3.32944C3.54245 3.19294 3.63645 3.06544 3.77295 3.04494C3.78545 3.04344 3.79845 3.04244 3.81095 3.04244Z" fill="white"/>
<path d="M2.51112 2.29248C2.55462 2.29248 2.59762 2.30348 2.63612 2.32598C2.70212 2.36398 2.74712 2.42998 2.75812 2.50498L2.99912 4.08748C3.01662 4.20298 2.95162 4.31548 2.84312 4.35798L1.35212 4.94048C1.28062 4.96798 1.20162 4.96198 1.13612 4.92398C1.07012 4.88598 1.02512 4.81998 1.01412 4.74498L0.773626 3.16248C0.756126 3.04698 0.821125 2.93448 0.929625 2.89198L2.42012 2.30948C2.44962 2.29798 2.48062 2.29248 2.51112 2.29248ZM2.47512 3.96498L2.31112 2.88948L1.29812 3.28548L1.46162 4.36098L2.47512 3.96498Z" fill="white"/>
<path d="M9.24771 3.87511C9.33371 3.87511 9.41821 3.91961 9.46421 4.00011C9.53371 4.11961 9.49271 4.27261 9.37271 4.34161L7.20771 5.59161C7.08871 5.66011 6.93521 5.62011 6.86621 5.50011C6.79671 5.38061 6.83771 5.22761 6.95771 5.15861L9.12271 3.90861C9.16221 3.88561 9.20521 3.87511 9.24771 3.87511Z" fill="white"/>
<path d="M8.18911 3.04271C8.20161 3.04271 8.21461 3.04371 8.22711 3.04571C8.36361 3.06671 8.45761 3.19371 8.43661 3.33021L8.22611 4.71521L9.53011 5.22521C9.65911 5.27571 9.72261 5.42071 9.67211 5.54921C9.62161 5.67771 9.47711 5.74171 9.34861 5.69121L7.85811 5.10871C7.74911 5.06621 7.68411 4.95371 7.70211 4.83821L7.94261 3.25521C7.96111 3.13121 8.06811 3.04271 8.18911 3.04271Z" fill="white"/>
<path d="M9.48999 2.29248C9.52099 2.29248 9.55149 2.29798 9.58099 2.30948L11.0715 2.89198C11.1805 2.93448 11.2455 3.04698 11.2275 3.16248L10.987 4.74498C10.976 4.81998 10.931 4.88598 10.865 4.92398C10.7985 4.96198 10.7195 4.96798 10.649 4.94048L9.15799 4.35798C9.04899 4.31548 8.98399 4.20298 9.00199 4.08748L9.24249 2.50498C9.25349 2.42998 9.29849 2.36398 9.36449 2.32598C9.40349 2.30348 9.44649 2.29248 9.48999 2.29248ZM10.703 3.28498L9.68999 2.88898L9.52599 3.96498L10.5395 4.36098L10.703 3.28498Z" fill="white"/>
<path d="M4.91763 6.37478C5.00363 6.37478 5.08813 6.41928 5.13413 6.49978C5.20363 6.61928 5.16263 6.77228 5.04263 6.84128L2.87763 8.09128C2.75863 8.16028 2.60513 8.12028 2.53613 7.99978C2.46663 7.88028 2.50763 7.72728 2.62763 7.65828L4.79263 6.40828C4.83213 6.38528 4.87513 6.37478 4.91763 6.37478Z" fill="white"/>
<path d="M2.5603 6.29244C2.5908 6.29244 2.6213 6.29794 2.6513 6.30944L4.1418 6.89194C4.2508 6.93444 4.3158 7.04694 4.2978 7.16244L4.0573 8.74494C4.0368 8.88144 3.9053 8.97394 3.7728 8.95444C3.6363 8.93344 3.5423 8.80644 3.5633 8.66994L3.7738 7.28494L2.4698 6.77494C2.3408 6.72444 2.2773 6.57944 2.3278 6.45094C2.3658 6.35294 2.4603 6.29244 2.5603 6.29244Z" fill="white"/>
<path d="M1.26097 7.04248C1.29197 7.04248 1.32247 7.04798 1.35197 7.05948L2.84297 7.64198C2.95197 7.68448 3.01697 7.79698 2.99897 7.91248L2.75797 9.49498C2.74697 9.56998 2.70197 9.63598 2.63597 9.67398C2.56997 9.71198 2.49047 9.71798 2.41997 9.69048L0.92947 9.10798C0.820469 9.06548 0.75547 8.95298 0.77347 8.83748L1.01397 7.25498C1.02497 7.17998 1.06997 7.11398 1.13597 7.07598C1.17497 7.05348 1.21797 7.04248 1.26097 7.04248ZM2.47497 8.03498L1.46147 7.63898L1.29797 8.71448L2.31097 9.11048L2.47497 8.03498Z" fill="white"/>
</g>
<defs>
<clipPath id="clip0">
<rect width="12" height="12" fill="white" transform="translate(12 12) rotate(-180)"/>
</clipPath>
</defs>
</svg>
