<svg width="15" height="16" viewBox="0 0 15 16" fill="none" xmlns="http://www.w3.org/2000/svg">
<path d="M10.6598 4.06422C10.6598 3.62625 11.0148 3.2712 11.4528 3.2712C11.8908 3.2712 12.2458 3.62625 12.2458 4.06422C12.2458 4.50219 11.8908 4.85723 11.4528 4.85723C11.0148 4.85723 10.6598 4.50219 10.6598 4.06422Z" fill="#212946"/>
<path fill-rule="evenodd" clip-rule="evenodd" d="M7.48772 4.26247C5.40736 4.26247 3.72089 5.94894 3.72089 8.0293C3.72089 10.1097 5.40736 11.7961 7.48772 11.7961C9.56808 11.7961 11.2545 10.1097 11.2545 8.0293C11.2545 5.94894 9.56808 4.26247 7.48772 4.26247ZM4.91042 8.0293C4.91042 6.60589 6.06431 5.452 7.48772 5.452C8.91112 5.452 10.065 6.60589 10.065 8.0293C10.065 9.4527 8.91112 10.6066 7.48772 10.6066C6.06431 10.6066 4.91042 9.4527 4.91042 8.0293Z" fill="#212946"/>
<path fill-rule="evenodd" clip-rule="evenodd" d="M11.6576 0.759732C8.90855 0.452485 6.06691 0.452485 3.31786 0.759732C1.72226 0.938063 0.434142 2.195 0.246551 3.7989C-0.0821838 6.60958 -0.0821838 9.44901 0.246551 12.2597C0.434142 13.8636 1.72227 15.1205 3.31786 15.2989C6.06691 15.6061 8.90855 15.6061 11.6576 15.2989C13.2532 15.1205 14.5413 13.8636 14.7289 12.2597C15.0576 9.44901 15.0576 6.60958 14.7289 3.7989C14.5413 2.195 13.2532 0.938063 11.6576 0.759732ZM3.44998 1.9419C6.11122 1.64446 8.86423 1.64446 11.5255 1.9419C12.5803 2.05978 13.4252 2.89214 13.5474 3.93708C13.8654 6.65596 13.8654 9.40263 13.5474 12.1215C13.4252 13.1664 12.5803 13.9988 11.5255 14.1167C8.86423 14.4141 6.11122 14.4141 3.44998 14.1167C2.39519 13.9988 1.55024 13.1664 1.42802 12.1215C1.11002 9.40263 1.11002 6.65596 1.42802 3.93708C1.55024 2.89214 2.39519 2.05978 3.44998 1.9419Z" fill="#212946"/>
</svg>
