<svg width="17" height="16" viewBox="0 0 17 16" fill="none" xmlns="http://www.w3.org/2000/svg">
<path d="M5.92911 4.56084C6.07068 4.56464 6.22763 4.57229 6.37696 4.90376C6.47598 5.12443 6.64279 5.53066 6.77867 5.86158C6.88441 6.11908 6.97142 6.33098 6.99319 6.37435C7.04295 6.47339 7.07358 6.58767 7.00851 6.72099C7.00084 6.73672 6.99359 6.75176 6.98661 6.76624C6.93441 6.87457 6.89727 6.95166 6.80949 7.05247C6.7734 7.09389 6.7358 7.13932 6.69834 7.18459C6.63246 7.2642 6.56701 7.34329 6.5109 7.39918C6.4114 7.49815 6.30801 7.60492 6.42283 7.803C6.53772 8.00108 6.93963 8.65258 7.53293 9.17834C8.17077 9.7462 8.72542 9.98551 9.00579 10.1065C9.06023 10.13 9.10433 10.149 9.13668 10.1651C9.33577 10.2641 9.4544 10.2489 9.56922 10.1156C9.68411 9.98219 10.0668 9.53643 10.2008 9.33835C10.331 9.14027 10.4649 9.17075 10.6487 9.23931C10.8324 9.30786 11.8123 9.7879 12.0113 9.88694C12.0506 9.90653 12.0874 9.92417 12.1215 9.94053C12.26 10.0069 12.3542 10.0521 12.3941 10.1194C12.4438 10.2032 12.4438 10.5994 12.2793 11.0642C12.1109 11.529 11.2994 11.9747 10.9319 12.009C10.8971 12.0123 10.8625 12.0165 10.8269 12.0208C10.4901 12.0615 10.0626 12.1132 8.53957 11.5137C6.66287 10.7757 5.42404 8.9447 5.17358 8.5745C5.15381 8.54528 5.14019 8.52516 5.13291 8.5154L5.12868 8.50973C5.01472 8.35725 4.31759 7.42444 4.31759 6.46201C4.31759 5.54119 4.7712 5.0618 4.97809 4.84313C4.99121 4.82927 5.00333 4.81646 5.01428 4.80466C5.19798 4.60657 5.41238 4.55705 5.54632 4.55705C5.68034 4.55705 5.81428 4.55705 5.92911 4.56084Z" fill="#212946"/>
<path fill-rule="evenodd" clip-rule="evenodd" d="M0.74345 15.5187C0.680142 15.7485 0.88944 15.9606 1.12006 15.9004L4.6851 14.9692C5.81045 15.5788 7.07743 15.9026 8.36741 15.9026H8.37122C12.6161 15.9026 16.0764 12.4623 16.0764 8.23349C16.0764 6.18383 15.2764 4.25605 13.8219 2.80829C12.3674 1.3606 10.4343 0.560547 8.37116 0.560547C4.12631 0.560547 0.666016 4.00079 0.666016 8.2297C0.665534 9.57501 1.02063 10.8968 1.69566 12.0623L0.74345 15.5187ZM2.81464 12.3706C2.89729 12.0706 2.856 11.7499 2.70004 11.4806C2.12733 10.4918 1.82627 9.37035 1.82668 8.2297C1.82668 4.6473 4.76181 1.72121 8.37116 1.72121C10.1275 1.72121 11.7662 2.3998 13.0031 3.63092C14.2386 4.86069 14.9158 6.49238 14.9158 8.23349C14.9158 11.8158 11.9807 14.7419 8.37122 14.7419H8.36741C7.27135 14.7419 6.19426 14.4667 5.2379 13.9486C4.97906 13.8084 4.67661 13.7718 4.39178 13.8462L2.2543 14.4045L2.81464 12.3706Z" fill="#212946"/>
</svg>
