<svg width="32" height="32" viewBox="0 0 32 32" fill="none" xmlns="http://www.w3.org/2000/svg">
<circle cx="16" cy="16" r="15.5" transform="rotate(-180 16 16)" fill="white" stroke="#FF7B47"/>
<path fill-rule="evenodd" clip-rule="evenodd" d="M16.1958 10.8032C16.3208 10.6779 16.4904 10.6074 16.6672 10.6074C16.8439 10.6074 17.0135 10.6779 17.1385 10.8032L21.8052 15.4848C21.9301 15.6102 22.0003 15.7803 22.0003 15.9576C22.0003 16.1349 21.9301 16.305 21.8052 16.4304L17.1385 21.112C17.0128 21.2338 16.8444 21.3012 16.6696 21.2997C16.4948 21.2981 16.3275 21.2278 16.2039 21.1038C16.0803 20.9798 16.0102 20.8121 16.0087 20.6367C16.0072 20.4614 16.0744 20.2924 16.1958 20.1663L19.7245 16.6264L10.6672 16.6264C10.4903 16.6264 10.3208 16.5559 10.1957 16.4305C10.0707 16.3051 10.0005 16.135 10.0005 15.9576C10.0005 15.7802 10.0707 15.6101 10.1957 15.4847C10.3208 15.3593 10.4903 15.2888 10.6672 15.2888L19.7245 15.2888L16.1958 11.7489C16.0708 11.6235 16.0006 11.4534 16.0006 11.2761C16.0006 11.0987 16.0708 10.9287 16.1958 10.8032Z" fill="#FF7B47"/>
</svg>
