<svg width="18" height="17" viewBox="0 0 18 17" fill="none" xmlns="http://www.w3.org/2000/svg">
<path fill-rule="evenodd" clip-rule="evenodd" d="M3.84049 10.1142C3.87828 10.1269 3.91643 10.136 3.95453 10.1415C3.99609 10.2392 4.04979 10.3655 4.11243 10.5133C4.2653 10.8738 4.47129 11.3614 4.68391 11.8702C5.11751 12.9076 5.55489 13.9771 5.65149 14.2832C5.77107 14.6616 5.89747 14.9189 6.03546 15.0945C6.10681 15.1853 6.18933 15.2647 6.28589 15.3247C6.3345 15.3549 6.38584 15.3797 6.43944 15.3982C6.4418 15.399 6.44416 15.3998 6.44652 15.4006C6.7228 15.5049 6.97468 15.4614 7.13239 15.4083C7.21677 15.3799 7.28505 15.3456 7.33344 15.3178C7.35811 15.3036 7.37895 15.2903 7.39558 15.2792L7.3995 15.2765L9.83949 13.7549L12.6579 15.9157C12.6995 15.9476 12.7448 15.9743 12.7929 15.9953C13.1314 16.143 13.4593 16.1946 13.7678 16.1524C14.0756 16.1104 14.3201 15.981 14.5021 15.8354C14.6803 15.6928 14.8011 15.5332 14.8763 15.4145C14.9147 15.3539 14.9436 15.3003 14.9639 15.2593C14.9742 15.2386 14.9824 15.2209 14.9887 15.2066L14.9969 15.1878L14.9999 15.1804L15.0012 15.1772L15.0018 15.1758L15.0024 15.1744C15.0172 15.1374 15.0285 15.0991 15.0363 15.06L17.6092 2.08788C17.6174 2.04639 17.6216 2.0042 17.6216 1.9619C17.6216 1.58202 17.4785 1.2208 17.1419 1.00161C16.8542 0.814263 16.5338 0.806199 16.3313 0.821571C16.1128 0.838153 15.911 0.892083 15.7757 0.935178C15.7052 0.957605 15.6461 0.979244 15.6035 0.995752C15.5821 1.00405 15.5646 1.01117 15.5515 1.0166L15.5417 1.02073L1.1121 6.68124L1.11023 6.68191C1.10103 6.68526 1.08923 6.68966 1.0752 6.69513C1.04726 6.706 1.00982 6.72133 0.966091 6.74115C0.880806 6.7798 0.761164 6.84021 0.638391 6.92429C0.442251 7.0586 -0.00883444 7.42648 0.0671229 8.03366C0.12772 8.51805 0.45957 8.81555 0.661755 8.95861C0.772773 9.03716 0.878242 9.09334 0.955054 9.1299C0.990688 9.14687 1.06467 9.17692 1.09677 9.18997L1.10488 9.19326L3.84049 10.1142ZM16.0467 2.21317L16.0447 2.21404C16.0375 2.21717 16.0302 2.22016 16.0229 2.22302L1.57584 7.89041C1.5683 7.89337 1.5607 7.89618 1.55305 7.89886L1.54501 7.90191C1.53576 7.90551 1.5202 7.91182 1.50067 7.92067C1.4896 7.92569 1.47804 7.93117 1.46626 7.93705C1.48245 7.94616 1.49794 7.95409 1.51171 7.96064C1.52493 7.96693 1.53501 7.97123 1.54053 7.9735L4.25368 8.8869C4.30334 8.90362 4.34963 8.92577 4.39213 8.95247L13.3508 3.70814L13.3591 3.70318C13.3657 3.69933 13.3743 3.69437 13.3845 3.68856C13.4049 3.67703 13.4329 3.66169 13.4663 3.64473C13.5284 3.61309 13.6279 3.56611 13.74 3.53148C13.818 3.50736 14.0481 3.43943 14.2968 3.5192C14.4503 3.56844 14.6092 3.67429 14.7126 3.85361C14.764 3.9427 14.7913 4.03219 14.8046 4.11411C14.8398 4.24317 14.8342 4.3706 14.8067 4.48062C14.7473 4.71761 14.5808 4.90247 14.4293 5.04387C14.2995 5.16509 12.62 6.78459 10.9631 8.38329C10.1368 9.18053 9.31899 9.96991 8.70771 10.56L8.30622 10.9476L13.3757 14.8342C13.4919 14.8758 13.5607 14.8737 13.5925 14.8693C13.6304 14.8642 13.6614 14.8496 13.693 14.8242C13.7285 14.7959 13.7594 14.7576 13.7826 14.7211L13.7836 14.7196L16.279 2.13819C16.242 2.14709 16.2045 2.15769 16.1684 2.16918C16.1276 2.18219 16.0938 2.19458 16.0715 2.20325C16.0604 2.20754 16.0525 2.21079 16.0481 2.21258L16.0467 2.21317ZM8.74174 12.9133L7.73035 12.1379L7.48528 13.6968L8.74174 12.9133ZM6.80254 10.5992L7.8083 9.62826C8.41962 9.03815 9.23753 8.2487 10.0639 7.45137L10.9035 6.64135L5.27449 9.93652L5.30469 10.0077C5.45811 10.3696 5.66501 10.8594 5.87876 11.3708C6.03858 11.7532 6.20572 12.1559 6.35795 12.5287L6.6023 10.9743C6.62586 10.8244 6.69907 10.6947 6.80254 10.5992Z" fill="#212946"/>
</svg>
