<svg width="24" height="16" viewBox="0 0 24 16" fill="none" xmlns="http://www.w3.org/2000/svg">
<path fill-rule="evenodd" clip-rule="evenodd" d="M23.3377 12.7399C22.7896 11.6357 22.0672 10.6272 21.1985 9.75281C20.9029 9.40916 20.5562 9.07001 20.2857 8.80527L20.2479 8.76828C20.1083 8.6317 19.993 8.5183 19.8986 8.4206C21.0864 6.7689 22.1031 5.00026 22.9326 3.14198L22.9661 3.067L22.9895 2.98832C23.0985 2.62256 23.2241 1.92704 22.7799 1.29849C22.3208 0.648822 21.5856 0.531658 21.0934 0.531658H18.8286C18.3564 0.510011 17.8889 0.637652 17.4928 0.897157C17.0937 1.15862 16.7883 1.53999 16.6204 1.9858C16.1326 3.14759 15.5223 4.25265 14.8006 5.2825V2.62843C14.8006 2.28535 14.7683 1.71145 14.401 1.22705C13.9611 0.647073 13.3251 0.531658 12.8835 0.531658H9.28983C8.82684 0.520949 8.37654 0.686502 8.03049 0.995538C7.67611 1.31202 7.45893 1.7541 7.42502 2.22803L7.42181 2.27293V2.31794C7.42181 2.80725 7.6157 3.16818 7.7706 3.39518C7.83995 3.49681 7.91413 3.58932 7.96099 3.64775L7.97181 3.66124C8.02177 3.72354 8.05512 3.76513 8.08859 3.81066C8.17663 3.93041 8.30327 4.11506 8.33909 4.59286V6.07745C7.71955 5.059 7.066 3.70372 6.57425 2.25626L6.5667 2.23405L6.55833 2.21213C6.43572 1.89099 6.23906 1.42373 5.84518 1.06617C5.38505 0.648442 4.84081 0.531658 4.34585 0.531658H2.04791C1.54718 0.531658 0.943523 0.648799 0.493098 1.12395C0.0501658 1.59119 0 2.15107 0 2.44875V2.58293L0.0282602 2.7141C0.66475 5.66835 1.97624 8.43488 3.85969 10.7974C4.71359 12.144 5.87066 13.2727 7.23882 14.0931C8.62882 14.9265 10.1969 15.4178 11.814 15.5265L11.8562 15.5293H11.8985C12.63 15.5293 13.3927 15.4661 13.9661 15.084C14.7398 14.5684 14.8006 13.7766 14.8006 13.3821V12.2352C14.9991 12.3957 15.2455 12.6117 15.547 12.902C15.9116 13.267 16.2018 13.5831 16.4508 13.8591L16.5837 14.0068L16.5845 14.0077C16.7778 14.2229 16.9681 14.4349 17.1414 14.609C17.3592 14.828 17.6277 15.0693 17.9652 15.2475C18.3307 15.4405 18.7143 15.5277 19.1217 15.5277H21.4212C21.9056 15.5277 22.6005 15.4132 23.089 14.8468C23.6214 14.2296 23.5807 13.473 23.4133 12.9294L23.3832 12.8316L23.3377 12.7399ZM17.5734 12.8464C17.3145 12.5594 17.0023 12.2193 16.6079 11.8248L16.6046 11.8216C15.2378 10.5039 14.5992 10.2742 14.1476 10.2742C13.9074 10.2742 13.6416 10.3012 13.4692 10.516C13.3878 10.6174 13.345 10.7397 13.321 10.8673C13.2971 10.9946 13.2888 11.144 13.2888 11.3143V13.3821C13.2888 13.6389 13.2466 13.7467 13.1278 13.8259C12.9696 13.9313 12.6314 14.0168 11.9069 14.0175C10.5318 13.9237 9.19845 13.5053 8.01627 12.7964C6.83167 12.0862 5.83276 11.1046 5.10183 9.93265L5.09387 9.9199L5.08446 9.90818C3.32945 7.72377 2.10652 5.16128 1.51214 2.42323C1.51536 2.29123 1.54396 2.21293 1.59029 2.16405C1.63804 2.11369 1.75372 2.0435 2.04791 2.0435H4.34585C4.60148 2.0435 4.73377 2.0991 4.82899 2.18554C4.93693 2.28353 5.03055 2.44995 5.14429 2.74709C5.70832 4.40605 6.47106 5.95749 7.19333 7.09825C7.55434 7.66844 7.90963 8.14301 8.22974 8.47839C8.38953 8.64581 8.54624 8.78458 8.6958 8.8832C8.84055 8.97865 9.00465 9.05395 9.17342 9.05395C9.26248 9.05395 9.36664 9.04479 9.46692 9.00038C9.57481 8.95261 9.65855 8.873 9.71768 8.76633C9.82229 8.57763 9.85093 8.29812 9.85093 7.93197V4.54171L9.85043 4.53376C9.79819 3.70895 9.54917 3.245 9.30669 2.91516C9.25355 2.84288 9.20115 2.77759 9.15529 2.72045L9.14272 2.70479C9.09238 2.642 9.05231 2.59126 9.01939 2.54302C8.95907 2.45462 8.93569 2.39298 8.93378 2.32694C8.94164 2.24854 8.97859 2.1758 9.03752 2.12317C9.0987 2.06854 9.17874 2.0401 9.26068 2.0435H12.8835C13.0912 2.0435 13.1612 2.09418 13.1964 2.1406C13.2461 2.20613 13.2888 2.34242 13.2888 2.62843V7.19279C13.2888 7.73497 13.5387 8.10199 13.9017 8.10199C14.3193 8.10199 14.6204 7.84857 15.1469 7.3221L15.1557 7.31331L15.1635 7.3037C16.3436 5.86464 17.308 4.26151 18.0259 2.54451L18.0304 2.53164C18.0844 2.37992 18.1866 2.25003 18.3213 2.16178C18.456 2.07354 18.6158 2.03179 18.7765 2.0429L18.7852 2.0435H21.0934C21.4082 2.0435 21.5118 2.12361 21.5452 2.17099C21.5809 2.2214 21.6056 2.32944 21.5451 2.54131C20.7175 4.3922 19.6941 6.1491 18.4929 7.78246L18.4853 7.79403C18.3686 7.97237 18.2407 8.16969 18.2222 8.3963C18.2023 8.63962 18.3076 8.8608 18.4919 9.0979C18.6261 9.2964 18.903 9.56741 19.1838 9.84235L19.2103 9.86827C19.5048 10.1565 19.8239 10.4688 20.08 10.7711L20.0868 10.7791L20.0943 10.7866C20.8578 11.5481 21.4926 12.4284 21.9741 13.3932C22.0509 13.6559 22.0039 13.7901 21.9442 13.8594C21.8743 13.9404 21.7177 14.0159 21.4212 14.0159H19.1217C18.9422 14.0159 18.8035 13.9805 18.6711 13.9106C18.5331 13.8377 18.3912 13.7218 18.2132 13.5429C18.0699 13.3988 17.9133 13.2244 17.7222 13.0118C17.6749 12.9591 17.6253 12.9039 17.5734 12.8464Z" fill="#212946"/>
</svg>
