<svg width="17" height="16" viewBox="0 0 17 16" fill="none" xmlns="http://www.w3.org/2000/svg">
<path d="M9.33815 9.42854C8.68052 8.6816 8.06891 4.0164 8.02432 3.78734C7.60596 1.1083 6.23904 0.667957 5.16305 0.773951C3.83719 0.899154 2.06607 2.7658 0.179559 4.43825C-0.0299741 4.62463 -0.0604131 4.9419 0.110895 5.16456L0.860542 6.13843C1.03397 6.36465 1.35394 6.41373 1.58541 6.24941C2.21614 5.80409 2.48018 5.65114 2.58211 5.59921C3.98301 6.06872 4.02053 15.5293 7.69303 15.5293C11.3344 15.5293 19.6301 5.09698 16.1763 1.38716C14.8533 -0.0355936 10.6208 -0.155105 9.13782 4.71568C9.00473 5.15318 9.44858 5.54443 9.86056 5.35948C10.1812 5.21649 10.5054 5.14393 10.824 5.14393C11.2947 5.14393 11.3294 5.32177 11.3549 5.45196C11.5701 6.55245 9.93348 8.99176 9.33815 9.42854ZM12.433 5.63976C12.433 5.17808 12.3013 4.80389 12.0415 4.5293C11.6975 4.16579 11.1298 4.02707 10.4962 4.09323C11.7655 1.22354 14.6444 1.30321 15.4005 2.11561C17.8872 4.79109 10.7709 14.4615 7.69232 14.4615C4.95635 14.4615 5.20977 4.52219 2.52761 4.52219C2.3478 4.52219 2.1588 4.56629 1.39216 5.0856L1.25342 4.90633C2.33223 3.9289 4.37235 1.9214 5.26357 1.83746C6.98798 1.66317 6.95187 4.24191 7.04461 4.41406C7.72276 8.9946 8.29827 10.5411 9.32328 10.5411C10.3986 10.5397 12.433 7.33425 12.433 5.63976Z" fill="#212946"/>
</svg>
