<svg width="21" height="16" viewBox="0 0 21 16" fill="none" xmlns="http://www.w3.org/2000/svg">
<path fill-rule="evenodd" clip-rule="evenodd" d="M8.68631 4.4128C8.45631 4.2748 8.16985 4.27118 7.93644 4.40334C7.70302 4.53549 7.55874 4.78299 7.55874 5.05122V11.0074C7.55874 11.2756 7.70302 11.5231 7.93644 11.6553C8.16985 11.7874 8.45631 11.7838 8.68631 11.6458L13.6498 8.66772C13.874 8.53317 14.0112 8.29082 14.0112 8.0293C14.0112 7.76778 13.874 7.52543 13.6498 7.39088L8.68631 4.4128ZM11.8196 8.0293L9.04778 9.69241V6.36618L11.8196 8.0293Z" fill="#212946"/>
<path fill-rule="evenodd" clip-rule="evenodd" d="M15.2826 0.724348C11.9584 0.46428 8.61897 0.46428 5.29479 0.724348L3.07046 0.898369C1.71785 1.00419 0.611311 2.01793 0.387719 3.35613C-0.12924 6.45013 -0.12924 9.60847 0.387719 12.7025C0.611311 14.0407 1.71785 15.0544 3.07046 15.1602L5.29479 15.3342C8.61897 15.5943 11.9584 15.5943 15.2826 15.3342L17.5069 15.1602C18.8595 15.0544 19.966 14.0407 20.1896 12.7025C20.7066 9.60847 20.7066 6.45013 20.1896 3.35613C19.966 2.01793 18.8595 1.00419 17.5069 0.898369L15.2826 0.724348ZM5.41093 2.20885C8.65781 1.95483 11.9196 1.95483 15.1664 2.20885L17.3908 2.38287C18.0614 2.43534 18.6101 2.93799 18.721 3.60152C19.2108 6.53305 19.2108 9.52554 18.721 12.4571C18.6101 13.1206 18.0614 13.6233 17.3908 13.6757L15.1664 13.8497C11.9196 14.1038 8.6578 14.1038 5.41093 13.8497L3.1866 13.6757C2.51593 13.6233 1.96726 13.1206 1.8564 12.4571C1.36659 9.52554 1.36659 6.53305 1.8564 3.60152C1.96726 2.93799 2.51593 2.43534 3.1866 2.38287L5.41093 2.20885Z" fill="#212946"/>
</svg>
